STARTFONT 2.1
FONT -ct-teletext-medium-r-normal--12-120-72-72-C-80-ISO10646-1
SIZE 12 72 72
FONTBOUNDINGBOX 8 12 0 -2
STARTPROPERTIES 10
FAMILY_NAME "CT Teletext"
WEIGHT_NAME "Medium"
SLANT "R"
PIXEL_SIZE 12
POINT_SIZE 120
RESOLUTION_X 72
RESOLUTION_Y 72
SPACING "C"
FONT_ASCENT 10
FONT_DESCENT 2
ENDPROPERTIES
CHARS 136
STARTCHAR U+0020
ENCODING 32
SWIDTH 500 0
DWIDTH 8 0
BBX 8 12 0 -2
BITMAP
00
00
00
00
00
00
00
00
00
00
00
00
ENDCHAR
STARTCHAR U+0021
ENCODING 33
SWIDTH 500 0
DWIDTH 8 0
BBX 8 12 0 -2
BITMAP
00
00
00
18
18
18
18
18
00
18
00
00
ENDCHAR
STARTCHAR U+0022
ENCODING 34
SWIDTH 500 0
DWIDTH 8 0
BBX 8 12 0 -2
BITMAP
00
00
00
66
66
24
00
00
00
00
00
00
ENDCHAR
STARTCHAR U+0023
ENCODING 35
SWIDTH 500 0
DWIDTH 8 0
BBX 8 12 0 -2
BITMAP
00
00
00
00
6C
FE
6C
6C
FE
6C
00
00
ENDCHAR
STARTCHAR U+0024
ENCODING 36
SWIDTH 500 0
DWIDTH 8 0
BBX 8 12 0 -2
BITMAP
00
00
00
18
3E
60
3C
06
7C
18
00
00
ENDCHAR
STARTCHAR U+0025
ENCODING 37
SWIDTH 500 0
DWIDTH 8 0
BBX 8 12 0 -2
BITMAP
00
00
00
00
C6
0C
18
30
60
C6
00
00
ENDCHAR
STARTCHAR U+0026
ENCODING 38
SWIDTH 500 0
DWIDTH 8 0
BBX 8 12 0 -2
BITMAP
00
00
00
38
6C
38
76
DC
DC
76
00
00
ENDCHAR
STARTCHAR U+0027
ENCODING 39
SWIDTH 500 0
DWIDTH 8 0
BBX 8 12 0 -2
BITMAP
00
00
00
30
30
60
00
00
00
00
00
00
ENDCHAR
STARTCHAR U+0028
ENCODING 40
SWIDTH 500 0
DWIDTH 8 0
BBX 8 12 0 -2
BITMAP
00
00
00
0C
18
30
30
30
18
0C
00
00
ENDCHAR
STARTCHAR U+0029
ENCODING 41
SWIDTH 500 0
DWIDTH 8 0
BBX 8 12 0 -2
BITMAP
00
00
00
30
18
0C
0C
0C
18
30
00
00
ENDCHAR
STARTCHAR U+002A
ENCODING 42
SWIDTH 500 0
DWIDTH 8 0
BBX 8 12 0 -2
BITMAP
00
00
00
00
6C
38
FE
38
6C
00
00
00
ENDCHAR
STARTCHAR U+002B
ENCODING 43
SWIDTH 500 0
DWIDTH 8 0
BBX 8 12 0 -2
BITMAP
00
00
00
00
18
18
7E
18
18
00
00
00
ENDCHAR
STARTCHAR U+002C
ENCODING 44
SWIDTH 500 0
DWIDTH 8 0
BBX 8 12 0 -2
BITMAP
00
00
00
00
00
00
00
00
18
18
18
30
ENDCHAR
STARTCHAR U+002D
ENCODING 45
SWIDTH 500 0
DWIDTH 8 0
BBX 8 12 0 -2
BITMAP
00
00
00
00
00
00
FE
00
00
00
00
00
ENDCHAR
STARTCHAR U+002E
ENCODING 46
SWIDTH 500 0
DWIDTH 8 0
BBX 8 12 0 -2
BITMAP
00
00
00
00
00
00
00
00
18
18
00
00
ENDCHAR
STARTCHAR U+002F
ENCODING 47
SWIDTH 500 0
DWIDTH 8 0
BBX 8 12 0 -2
BITMAP
00
00
00
00
06
0C
18
30
60
C0
00
00
ENDCHAR
STARTCHAR 0
ENCODING 48
SWIDTH 500 0
DWIDTH 8 0
BBX 8 12 0 -2
BITMAP
00
00
00
38
6C
C6
C6
C6
6C
38
00
00
ENDCHAR
STARTCHAR 1
ENCODING 49
SWIDTH 500 0
DWIDTH 8 0
BBX 8 12 0 -2
BITMAP
00
00
00
18
38
78
18
18
18
18
00
00
ENDCHAR
STARTCHAR 2
ENCODING 50
SWIDTH 500 0
DWIDTH 8 0
BBX 8 12 0 -2
BITMAP
00
00
00
7C
C6
0C
18
30
66
FE
00
00
ENDCHAR
STARTCHAR 3
ENCODING 51
SWIDTH 500 0
DWIDTH 8 0
BBX 8 12 0 -2
BITMAP
00
00
00
7C
C6
06
3C
06
C6
7C
00
00
ENDCHAR
STARTCHAR 4
ENCODING 52
SWIDTH 500 0
DWIDTH 8 0
BBX 8 12 0 -2
BITMAP
00
00
00
0C
1C
3C
6C
FE
0C
1E
00
00
ENDCHAR
STARTCHAR 5
ENCODING 53
SWIDTH 500 0
DWIDTH 8 0
BBX 8 12 0 -2
BITMAP
00
00
00
FC
C0
F8
0C
06
CC
78
00
00
ENDCHAR
STARTCHAR 6
ENCODING 54
SWIDTH 500 0
DWIDTH 8 0
BBX 8 12 0 -2
BITMAP
00
00
00
38
60
C0
FC
C6
C6
7C
00
00
ENDCHAR
STARTCHAR 7
ENCODING 55
SWIDTH 500 0
DWIDTH 8 0
BBX 8 12 0 -2
BITMAP
00
00
00
FE
C6
06
0C
18
30
30
00
00
ENDCHAR
STARTCHAR 8
ENCODING 56
SWIDTH 500 0
DWIDTH 8 0
BBX 8 12 0 -2
BITMAP
00
00
00
7C
C6
C6
7C
C6
C6
7C
00
00
ENDCHAR
STARTCHAR 9
ENCODING 57
SWIDTH 500 0
DWIDTH 8 0
BBX 8 12 0 -2
BITMAP
00
00
00
7C
C6
C6
7E
06
0C
38
00
00
ENDCHAR
STARTCHAR U+003A
ENCODING 58
SWIDTH 500 0
DWIDTH 8 0
BBX 8 12 0 -2
BITMAP
00
00
00
00
18
18
00
00
18
18
00
00
ENDCHAR
STARTCHAR U+003B
ENCODING 59
SWIDTH 500 0
DWIDTH 8 0
BBX 8 12 0 -2
BITMAP
00
00
00
00
00
18
18
00
18
18
18
30
ENDCHAR
STARTCHAR U+003C
ENCODING 60
SWIDTH 500 0
DWIDTH 8 0
BBX 8 12 0 -2
BITMAP
00
00
00
00
18
30
60
30
18
00
00
00
ENDCHAR
STARTCHAR U+003D
ENCODING 61
SWIDTH 500 0
DWIDTH 8 0
BBX 8 12 0 -2
BITMAP
00
00
00
00
7E
00
00
7E
00
00
00
00
ENDCHAR
STARTCHAR U+003E
ENCODING 62
SWIDTH 500 0
DWIDTH 8 0
BBX 8 12 0 -2
BITMAP
00
00
00
00
18
0C
06
0C
18
00
00
00
ENDCHAR
STARTCHAR U+003F
ENCODING 63
SWIDTH 500 0
DWIDTH 8 0
BBX 8 12 0 -2
BITMAP
00
00
00
3C
66
0C
18
18
00
18
00
00
ENDCHAR
STARTCHAR U+0040
ENCODING 64
SWIDTH 500 0
DWIDTH 8 0
BBX 8 12 0 -2
BITMAP
00
00
00
3C
42
5E
52
5E
40
3C
00
00
ENDCHAR
STARTCHAR A
ENCODING 65
SWIDTH 500 0
DWIDTH 8 0
BBX 8 12 0 -2
BITMAP
00
00
00
10
38
6C
C6
FE
C6
C6
00
00
ENDCHAR
STARTCHAR B
ENCODING 66
SWIDTH 500 0
DWIDTH 8 0
BBX 8 12 0 -2
BITMAP
00
00
00
FC
66
66
7C
66
66
FC
00
00
ENDCHAR
STARTCHAR C
ENCODING 67
SWIDTH 500 0
DWIDTH 8 0
BBX 8 12 0 -2
BITMAP
00
00
00
3C
66
C0
C0
C0
66
3C
00
00
ENDCHAR
STARTCHAR D
ENCODING 68
SWIDTH 500 0
DWIDTH 8 0
BBX 8 12 0 -2
BITMAP
00
00
00
F8
6C
66
66
66
6C
F8
00
00
ENDCHAR
STARTCHAR E
ENCODING 69
SWIDTH 500 0
DWIDTH 8 0
BBX 8 12 0 -2
BITMAP
00
00
00
FE
62
60
78
60
62
FE
00
00
ENDCHAR
STARTCHAR F
ENCODING 70
SWIDTH 500 0
DWIDTH 8 0
BBX 8 12 0 -2
BITMAP
00
00
00
FE
62
60
78
60
60
F0
00
00
ENDCHAR
STARTCHAR G
ENCODING 71
SWIDTH 500 0
DWIDTH 8 0
BBX 8 12 0 -2
BITMAP
00
00
00
3C
66
C0
C0
CE
66
3C
00
00
ENDCHAR
STARTCHAR H
ENCODING 72
SWIDTH 500 0
DWIDTH 8 0
BBX 8 12 0 -2
BITMAP
00
00
00
C6
C6
C6
FE
C6
C6
C6
00
00
ENDCHAR
STARTCHAR I
ENCODING 73
SWIDTH 500 0
DWIDTH 8 0
BBX 8 12 0 -2
BITMAP
00
00
00
3C
18
18
18
18
18
3C
00
00
ENDCHAR
STARTCHAR J
ENCODING 74
SWIDTH 500 0
DWIDTH 8 0
BBX 8 12 0 -2
BITMAP
00
00
00
1E
0C
0C
0C
CC
CC
78
00
00
ENDCHAR
STARTCHAR K
ENCODING 75
SWIDTH 500 0
DWIDTH 8 0
BBX 8 12 0 -2
BITMAP
00
00
00
E6
66
6C
78
6C
66
E6
00
00
ENDCHAR
STARTCHAR L
ENCODING 76
SWIDTH 500 0
DWIDTH 8 0
BBX 8 12 0 -2
BITMAP
00
00
00
F0
60
60
60
62
66
FE
00
00
ENDCHAR
STARTCHAR M
ENCODING 77
SWIDTH 500 0
DWIDTH 8 0
BBX 8 12 0 -2
BITMAP
00
00
00
C6
EE
FE
D6
C6
C6
C6
00
00
ENDCHAR
STARTCHAR N
ENCODING 78
SWIDTH 500 0
DWIDTH 8 0
BBX 8 12 0 -2
BITMAP
00
00
00
C6
E6
F6
DE
CE
C6
C6
00
00
ENDCHAR
STARTCHAR O
ENCODING 79
SWIDTH 500 0
DWIDTH 8 0
BBX 8 12 0 -2
BITMAP
00
00
00
7C
C6
C6
C6
C6
C6
7C
00
00
ENDCHAR
STARTCHAR P
ENCODING 80
SWIDTH 500 0
DWIDTH 8 0
BBX 8 12 0 -2
BITMAP
00
00
00
FC
66
66
7C
60
60
F0
00
00
ENDCHAR
STARTCHAR Q
ENCODING 81
SWIDTH 500 0
DWIDTH 8 0
BBX 8 12 0 -2
BITMAP
00
00
00
7C
C6
C6
C6
C6
D6
7E
06
00
ENDCHAR
STARTCHAR R
ENCODING 82
SWIDTH 500 0
DWIDTH 8 0
BBX 8 12 0 -2
BITMAP
00
00
00
FC
66
66
7C
6C
66
E6
00
00
ENDCHAR
STARTCHAR S
ENCODING 83
SWIDTH 500 0
DWIDTH 8 0
BBX 8 12 0 -2
BITMAP
00
00
00
7C
C6
60
38
0C
C6
7C
00
00
ENDCHAR
STARTCHAR T
ENCODING 84
SWIDTH 500 0
DWIDTH 8 0
BBX 8 12 0 -2
BITMAP
00
00
00
7E
5A
18
18
18
18
3C
00
00
ENDCHAR
STARTCHAR U
ENCODING 85
SWIDTH 500 0
DWIDTH 8 0
BBX 8 12 0 -2
BITMAP
00
00
00
C6
C6
C6
C6
C6
C6
7C
00
00
ENDCHAR
STARTCHAR V
ENCODING 86
SWIDTH 500 0
DWIDTH 8 0
BBX 8 12 0 -2
BITMAP
00
00
00
C6
C6
C6
C6
6C
38
10
00
00
ENDCHAR
STARTCHAR W
ENCODING 87
SWIDTH 500 0
DWIDTH 8 0
BBX 8 12 0 -2
BITMAP
00
00
00
C6
C6
C6
C6
D6
FE
6C
00
00
ENDCHAR
STARTCHAR X
ENCODING 88
SWIDTH 500 0
DWIDTH 8 0
BBX 8 12 0 -2
BITMAP
00
00
00
C6
6C
38
38
38
6C
C6
00
00
ENDCHAR
STARTCHAR Y
ENCODING 89
SWIDTH 500 0
DWIDTH 8 0
BBX 8 12 0 -2
BITMAP
00
00
00
66
66
66
3C
18
18
3C
00
00
ENDCHAR
STARTCHAR Z
ENCODING 90
SWIDTH 500 0
DWIDTH 8 0
BBX 8 12 0 -2
BITMAP
00
00
00
FE
C6
8C
18
32
66
FE
00
00
ENDCHAR
STARTCHAR U+005B
ENCODING 91
SWIDTH 500 0
DWIDTH 8 0
BBX 8 12 0 -2
BITMAP
00
00
00
1E
18
18
18
18
18
1E
00
00
ENDCHAR
STARTCHAR U+005C
ENCODING 92
SWIDTH 500 0
DWIDTH 8 0
BBX 8 12 0 -2
BITMAP
00
00
00
C0
60
30
18
0C
06
00
00
00
ENDCHAR
STARTCHAR U+005D
ENCODING 93
SWIDTH 500 0
DWIDTH 8 0
BBX 8 12 0 -2
BITMAP
00
00
00
78
18
18
18
18
18
78
00
00
ENDCHAR
STARTCHAR U+005E
ENCODING 94
SWIDTH 500 0
DWIDTH 8 0
BBX 8 12 0 -2
BITMAP
00
00
18
3C
66
00
00
00
00
00
00
00
ENDCHAR
STARTCHAR U+005F
ENCODING 95
SWIDTH 500 0
DWIDTH 8 0
BBX 8 12 0 -2
BITMAP
00
00
00
00
00
00
00
00
00
00
FE
00
ENDCHAR
STARTCHAR U+0060
ENCODING 96
SWIDTH 500 0
DWIDTH 8 0
BBX 8 12 0 -2
BITMAP
00
30
18
0C
00
00
00
00
00
00
00
00
ENDCHAR
STARTCHAR a
ENCODING 97
SWIDTH 500 0
DWIDTH 8 0
BBX 8 12 0 -2
BITMAP
00
00
00
00
00
78
0C
7C
CC
7C
00
00
ENDCHAR
STARTCHAR b
ENCODING 98
SWIDTH 500 0
DWIDTH 8 0
BBX 8 12 0 -2
BITMAP
00
00
00
E0
60
7C
66
66
66
7C
00
00
ENDCHAR
STARTCHAR c
ENCODING 99
SWIDTH 500 0
DWIDTH 8 0
BBX 8 12 0 -2
BITMAP
00
00
00
00
00
7C
C6
C0
C6
7C
00
00
ENDCHAR
STARTCHAR d
ENCODING 100
SWIDTH 500 0
DWIDTH 8 0
BBX 8 12 0 -2
BITMAP
00
00
00
1C
0C
7C
CC
CC
CC
76
00
00
ENDCHAR
STARTCHAR e
ENCODING 101
SWIDTH 500 0
DWIDTH 8 0
BBX 8 12 0 -2
BITMAP
00
00
00
00
00
7C
C6
FE
C0
7C
00
00
ENDCHAR
STARTCHAR f
ENCODING 102
SWIDTH 500 0
DWIDTH 8 0
BBX 8 12 0 -2
BITMAP
00
00
00
38
6C
64
F0
60
60
60
00
00
ENDCHAR
STARTCHAR g
ENCODING 103
SWIDTH 500 0
DWIDTH 8 0
BBX 8 12 0 -2
BITMAP
00
00
00
00
00
76
CC
CC
CC
7C
0C
78
ENDCHAR
STARTCHAR h
ENCODING 104
SWIDTH 500 0
DWIDTH 8 0
BBX 8 12 0 -2
BITMAP
00
00
00
E0
60
7C
66
66
66
E6
00
00
ENDCHAR
STARTCHAR i
ENCODING 105
SWIDTH 500 0
DWIDTH 8 0
BBX 8 12 0 -2
BITMAP
00
00
00
18
00
38
18
18
18
3C
00
00
ENDCHAR
STARTCHAR j
ENCODING 106
SWIDTH 500 0
DWIDTH 8 0
BBX 8 12 0 -2
BITMAP
00
00
00
06
00
0E
06
06
06
66
3C
00
ENDCHAR
STARTCHAR k
ENCODING 107
SWIDTH 500 0
DWIDTH 8 0
BBX 8 12 0 -2
BITMAP
00
00
00
E0
60
66
6C
78
6C
E6
00
00
ENDCHAR
STARTCHAR l
ENCODING 108
SWIDTH 500 0
DWIDTH 8 0
BBX 8 12 0 -2
BITMAP
00
00
00
38
18
18
18
18
18
3C
00
00
ENDCHAR
STARTCHAR m
ENCODING 109
SWIDTH 500 0
DWIDTH 8 0
BBX 8 12 0 -2
BITMAP
00
00
00
00
00
EC
FE
D6
D6
D6
00
00
ENDCHAR
STARTCHAR n
ENCODING 110
SWIDTH 500 0
DWIDTH 8 0
BBX 8 12 0 -2
BITMAP
00
00
00
00
00
DC
66
66
66
66
00
00
ENDCHAR
STARTCHAR o
ENCODING 111
SWIDTH 500 0
DWIDTH 8 0
BBX 8 12 0 -2
BITMAP
00
00
00
00
00
7C
C6
C6
C6
7C
00
00
ENDCHAR
STARTCHAR p
ENCODING 112
SWIDTH 500 0
DWIDTH 8 0
BBX 8 12 0 -2
BITMAP
00
00
00
00
00
DC
66
66
66
7C
60
F0
ENDCHAR
STARTCHAR q
ENCODING 113
SWIDTH 500 0
DWIDTH 8 0
BBX 8 12 0 -2
BITMAP
00
00
00
00
00
76
CC
CC
CC
7C
0C
1E
ENDCHAR
STARTCHAR r
ENCODING 114
SWIDTH 500 0
DWIDTH 8 0
BBX 8 12 0 -2
BITMAP
00
00
00
00
00
DC
76
66
60
F0
00
00
ENDCHAR
STARTCHAR s
ENCODING 115
SWIDTH 500 0
DWIDTH 8 0
BBX 8 12 0 -2
BITMAP
00
00
00
00
00
7C
C0
7C
06
7C
00
00
ENDCHAR
STARTCHAR t
ENCODING 116
SWIDTH 500 0
DWIDTH 8 0
BBX 8 12 0 -2
BITMAP
00
00
00
10
30
78
30
30
36
1C
00
00
ENDCHAR
STARTCHAR u
ENCODING 117
SWIDTH 500 0
DWIDTH 8 0
BBX 8 12 0 -2
BITMAP
00
00
00
00
00
CC
CC
CC
CC
76
00
00
ENDCHAR
STARTCHAR v
ENCODING 118
SWIDTH 500 0
DWIDTH 8 0
BBX 8 12 0 -2
BITMAP
00
00
00
00
00
66
66
66
3C
18
00
00
ENDCHAR
STARTCHAR w
ENCODING 119
SWIDTH 500 0
DWIDTH 8 0
BBX 8 12 0 -2
BITMAP
00
00
00
00
00
C6
C6
D6
FE
6C
00
00
ENDCHAR
STARTCHAR x
ENCODING 120
SWIDTH 500 0
DWIDTH 8 0
BBX 8 12 0 -2
BITMAP
00
00
00
00
00
C6
6C
38
6C
C6
00
00
ENDCHAR
STARTCHAR y
ENCODING 121
SWIDTH 500 0
DWIDTH 8 0
BBX 8 12 0 -2
BITMAP
00
00
00
00
00
66
66
66
66
3E
06
3C
ENDCHAR
STARTCHAR z
ENCODING 122
SWIDTH 500 0
DWIDTH 8 0
BBX 8 12 0 -2
BITMAP
00
00
00
00
00
7E
0C
18
30
7E
00
00
ENDCHAR
STARTCHAR U+007B
ENCODING 123
SWIDTH 500 0
DWIDTH 8 0
BBX 8 12 0 -2
BITMAP
00
00
00
0E
18
18
70
18
18
0E
00
00
ENDCHAR
STARTCHAR U+007C
ENCODING 124
SWIDTH 500 0
DWIDTH 8 0
BBX 8 12 0 -2
BITMAP
00
00
00
18
18
18
18
18
18
18
00
00
ENDCHAR
STARTCHAR U+007D
ENCODING 125
SWIDTH 500 0
DWIDTH 8 0
BBX 8 12 0 -2
BITMAP
00
00
00
70
18
18
0E
18
18
70
00
00
ENDCHAR
STARTCHAR U+007E
ENCODING 126
SWIDTH 500 0
DWIDTH 8 0
BBX 8 12 0 -2
BITMAP
00
00
00
00
00
76
DC
00
00
00
00
00
ENDCHAR
STARTCHAR U+00B0
ENCODING 176
SWIDTH 500 0
DWIDTH 8 0
BBX 8 12 0 -2
BITMAP
00
00
38
6C
6C
38
00
00
00
00
00
00
ENDCHAR
STARTCHAR U+00C1
ENCODING 193
SWIDTH 500 0
DWIDTH 8 0
BBX 8 12 0 -2
BITMAP
0C
18
10
38
6C
C6
C6
FE
C6
C6
00
00
ENDCHAR
STARTCHAR U+00C4
ENCODING 196
SWIDTH 500 0
DWIDTH 8 0
BBX 8 12 0 -2
BITMAP
6C
00
00
10
38
6C
C6
FE
C6
C6
00
00
ENDCHAR
STARTCHAR U+00C9
ENCODING 201
SWIDTH 500 0
DWIDTH 8 0
BBX 8 12 0 -2
BITMAP
0C
30
00
FE
62
60
78
60
62
FE
00
00
ENDCHAR
STARTCHAR U+00CD
ENCODING 205
SWIDTH 500 0
DWIDTH 8 0
BBX 8 12 0 -2
BITMAP
0C
18
00
3C
18
18
18
18
18
3C
00
00
ENDCHAR
STARTCHAR U+00D3
ENCODING 211
SWIDTH 500 0
DWIDTH 8 0
BBX 8 12 0 -2
BITMAP
0C
18
00
7C
C6
C6
C6
C6
C6
7C
00
00
ENDCHAR
STARTCHAR U+00D4
ENCODING 212
SWIDTH 500 0
DWIDTH 8 0
BBX 8 12 0 -2
BITMAP
18
3C
00
7C
C6
C6
C6
C6
C6
7C
00
00
ENDCHAR
STARTCHAR U+00DA
ENCODING 218
SWIDTH 500 0
DWIDTH 8 0
BBX 8 12 0 -2
BITMAP
0C
18
00
C6
C6
C6
C6
C6
C6
7C
00
00
ENDCHAR
STARTCHAR U+00DD
ENCODING 221
SWIDTH 500 0
DWIDTH 8 0
BBX 8 12 0 -2
BITMAP
0C
18
00
66
66
66
3C
18
18
3C
00
00
ENDCHAR
STARTCHAR U+00E1
ENCODING 225
SWIDTH 500 0
DWIDTH 8 0
BBX 8 12 0 -2
BITMAP
00
00
18
30
00
78
0C
7C
CC
7C
00
00
ENDCHAR
STARTCHAR U+00E4
ENCODING 228
SWIDTH 500 0
DWIDTH 8 0
BBX 8 12 0 -2
BITMAP
00
00
6C
00
00
78
0C
7C
CC
7C
00
00
ENDCHAR
STARTCHAR U+00E9
ENCODING 233
SWIDTH 500 0
DWIDTH 8 0
BBX 8 12 0 -2
BITMAP
00
00
18
30
00
7C
C6
FE
C0
7C
00
00
ENDCHAR
STARTCHAR U+00ED
ENCODING 237
SWIDTH 500 0
DWIDTH 8 0
BBX 8 12 0 -2
BITMAP
00
00
18
30
00
38
18
18
18
3C
00
00
ENDCHAR
STARTCHAR U+00F3
ENCODING 243
SWIDTH 500 0
DWIDTH 8 0
BBX 8 12 0 -2
BITMAP
00
00
18
30
00
7C
C6
C6
C6
7C
00
00
ENDCHAR
STARTCHAR U+00F4
ENCODING 244
SWIDTH 500 0
DWIDTH 8 0
BBX 8 12 0 -2
BITMAP
00
00
18
3C
00
7C
C6
C6
C6
7C
00
00
ENDCHAR
STARTCHAR U+00FA
ENCODING 250
SWIDTH 500 0
DWIDTH 8 0
BBX 8 12 0 -2
BITMAP
00
00
18
30
00
CC
CC
CC
CC
76
00
00
ENDCHAR
STARTCHAR U+00FD
ENCODING 253
SWIDTH 500 0
DWIDTH 8 0
BBX 8 12 0 -2
BITMAP
00
00
0C
18
00
66
66
66
66
3E
06
3C
ENDCHAR
STARTCHAR U+010C
ENCODING 268
SWIDTH 500 0
DWIDTH 8 0
BBX 8 12 0 -2
BITMAP
36
18
00
3C
66
C0
C0
C0
66
3C
00
00
ENDCHAR
STARTCHAR U+010D
ENCODING 269
SWIDTH 500 0
DWIDTH 8 0
BBX 8 12 0 -2
BITMAP
00
00
6C
38
00
7C
C6
C0
C6
7C
00
00
ENDCHAR
STARTCHAR U+010E
ENCODING 270
SWIDTH 500 0
DWIDTH 8 0
BBX 8 12 0 -2
BITMAP
6C
30
00
F8
6C
66
66
66
6C
F8
00
00
ENDCHAR
STARTCHAR U+010F
ENCODING 271
SWIDTH 500 0
DWIDTH 8 0
BBX 8 12 0 -2
BITMAP
00
03
06
1C
0C
7C
CC
CC
CC
76
00
00
ENDCHAR
STARTCHAR U+011A
ENCODING 282
SWIDTH 500 0
DWIDTH 8 0
BBX 8 12 0 -2
BITMAP
6C
30
00
FE
62
60
78
60
62
FE
00
00
ENDCHAR
STARTCHAR U+011B
ENCODING 283
SWIDTH 500 0
DWIDTH 8 0
BBX 8 12 0 -2
BITMAP
00
00
6C
38
00
7C
C6
FE
C0
7C
00
00
ENDCHAR
STARTCHAR U+0139
ENCODING 313
SWIDTH 500 0
DWIDTH 8 0
BBX 8 12 0 -2
BITMAP
0C
18
00
F0
60
60
60
62
66
FE
00
00
ENDCHAR
STARTCHAR U+013A
ENCODING 314
SWIDTH 500 0
DWIDTH 8 0
BBX 8 12 0 -2
BITMAP
00
00
0C
18
00
18
18
18
18
3C
00
00
ENDCHAR
STARTCHAR U+013D
ENCODING 317
SWIDTH 500 0
DWIDTH 8 0
BBX 8 12 0 -2
BITMAP
03
06
00
F0
60
60
60
62
66
FE
00
00
ENDCHAR
STARTCHAR U+013E
ENCODING 318
SWIDTH 500 0
DWIDTH 8 0
BBX 8 12 0 -2
BITMAP
00
00
03
3E
18
18
18
18
18
3C
00
00
ENDCHAR
STARTCHAR U+0147
ENCODING 327
SWIDTH 500 0
DWIDTH 8 0
BBX 8 12 0 -2
BITMAP
6C
38
00
C6
E6
F6
DE
CE
C6
C6
00
00
ENDCHAR
STARTCHAR U+0148
ENCODING 328
SWIDTH 500 0
DWIDTH 8 0
BBX 8 12 0 -2
BITMAP
00
00
6C
38
00
DC
66
66
66
66
00
00
ENDCHAR
STARTCHAR U+0154
ENCODING 340
SWIDTH 500 0
DWIDTH 8 0
BBX 8 12 0 -2
BITMAP
0C
18
00
FC
66
66
7C
6C
66
E6
00
00
ENDCHAR
STARTCHAR U+0155
ENCODING 341
SWIDTH 500 0
DWIDTH 8 0
BBX 8 12 0 -2
BITMAP
00
00
0C
18
00
DC
76
66
60
F0
00
00
ENDCHAR
STARTCHAR U+0158
ENCODING 344
SWIDTH 500 0
DWIDTH 8 0
BBX 8 12 0 -2
BITMAP
6C
18
00
FC
66
66
7C
6C
66
E6
00
00
ENDCHAR
STARTCHAR U+0159
ENCODING 345
SWIDTH 500 0
DWIDTH 8 0
BBX 8 12 0 -2
BITMAP
00
00
6C
38
00
DC
76
66
60
F0
00
00
ENDCHAR
STARTCHAR U+0160
ENCODING 352
SWIDTH 500 0
DWIDTH 8 0
BBX 8 12 0 -2
BITMAP
6C
18
00
7C
C6
60
38
0C
C6
7C
00
00
ENDCHAR
STARTCHAR U+0161
ENCODING 353
SWIDTH 500 0
DWIDTH 8 0
BBX 8 12 0 -2
BITMAP
00
00
6C
38
00
7C
C0
7C
06
7C
00
00
ENDCHAR
STARTCHAR U+0164
ENCODING 356
SWIDTH 500 0
DWIDTH 8 0
BBX 8 12 0 -2
BITMAP
6C
18
00
7E
5A
18
18
18
18
3C
00
00
ENDCHAR
STARTCHAR U+0165
ENCODING 357
SWIDTH 500 0
DWIDTH 8 0
BBX 8 12 0 -2
BITMAP
00
00
03
16
30
78
30
30
36
1C
00
00
ENDCHAR
STARTCHAR U+016E
ENCODING 366
SWIDTH 500 0
DWIDTH 8 0
BBX 8 12 0 -2
BITMAP
10
28
10
C6
C6
C6
C6
C6
C6
7C
00
00
ENDCHAR
STARTCHAR U+016F
ENCODING 367
SWIDTH 500 0
DWIDTH 8 0
BBX 8 12 0 -2
BITMAP
00
00
30
48
30
CC
CC
CC
CC
76
00
00
ENDCHAR
STARTCHAR U+017D
ENCODING 381
SWIDTH 500 0
DWIDTH 8 0
BBX 8 12 0 -2
BITMAP
6C
38
00
FE
C6
8C
18
32
66
FE
00
00
ENDCHAR
STARTCHAR U+017E
ENCODING 382
SWIDTH 500 0
DWIDTH 8 0
BBX 8 12 0 -2
BITMAP
00
00
6C
38
00
7E
0C
18
30
7E
00
00
ENDCHAR
ENDFONT
